# xmcd CD database file
#
# Track frame offsets:
#	150
#	13906
#	26493
#	49628
#
# Disc length: 940 seconds
#
# Revision: 0
# Processed by: cddbd v1.5.1PL0 Copyright (c) Steve Scherf et al.
# Submitted via: CDex 1.51
#
DISCID=2803aa04
DTITLE=Kisymved - Kisymved
DYEAR=2004
DGENRE=JPop
TTITLE0=Kisymved - ひとめぼれ
TTITLE1=Kisymved - Fly！
TTITLE2=Kisymved - 雨の日にふたりでいる
TTITLE3=Kisymved - ひと夏の恋の物語り
EXTD=YEAR: 2004
EXTT0=
EXTT1=
EXTT2=
EXTT3=
PLAYORDER=
